<svg width="65" height="49" viewBox="0 0 65 49" fill="none" xmlns="http://www.w3.org/2000/svg">
<path d="M25.5 42.5H16.5683C15.8602 42.5 15.1562 42.3926 14.4804 42.1814L9.35369 40.5793C8.1408 40.2003 7.05397 39.4982 6.20975 38.5485L4.72607 36.8793C3.92242 35.9752 3.36678 34.8783 3.11332 33.6955L2.45844 30.6394C2.15993 29.2464 2.29358 27.7954 2.84152 26.4804L3.87362 24.0033C4.28571 23.0143 4.91931 22.1331 5.72563 21.4276L7.66622 19.7296C8.21864 19.2462 8.84364 18.8527 9.51832 18.5636L10.0874 18.3197C11.3355 17.7848 12.401 16.8984 13.1543 15.7686L15 13L16.6155 10.5767C16.8712 10.1932 17.1642 9.83583 17.4901 9.50988L19.5 7.5L21.7517 5.62355C22.2482 5.20984 22.7995 4.86687 23.3901 4.60442L26.4445 3.24688C26.8141 3.0826 27.1973 2.95067 27.5897 2.85257L30.164 2.209C30.7192 2.07019 31.2894 2 31.8617 2H34.2316C34.7423 2 35.2515 2.0559 35.7501 2.16669L38.2236 2.71635C39.0672 2.90383 39.8689 3.24591 40.588 3.72531L42.5 5L45.5286 7.16327C45.8423 7.38737 46.137 7.63702 46.4097 7.90965L48.1482 9.64823C48.3824 9.88245 48.5997 10.133 48.7985 10.398L51.5 14L53.4399 16.2632C54.1373 17.0769 55.0122 17.7195 55.9972 18.1417L56.7609 18.469C57.5795 18.8198 58.3235 19.3235 58.9532 19.9532L59.6968 20.6968C60.2288 21.2288 60.6715 21.8431 61.008 22.516L62.261 25.022C62.747 25.994 63 27.0658 63 28.1525V30.4726C63 31.1539 62.9005 31.8315 62.7048 32.4841L62.0901 34.5331C61.7048 35.8173 60.9588 36.9639 59.9408 37.8364L58.505 39.0671C58.1691 39.3551 57.8066 39.6105 57.4225 39.83L55.42 40.9743C54.8102 41.3228 54.1513 41.5775 53.4656 41.7299L50.7501 42.3333C50.2515 42.4441 49.7423 42.5 49.2316 42.5H44H41" stroke="white" stroke-width="4" stroke-linecap="round"/>
<path d="M33 48C33 48.5523 33.4477 49 34 49C34.5523 49 35 48.5523 35 48H33ZM34.7071 29.2929C34.3166 28.9024 33.6834 28.9024 33.2929 29.2929L26.9289 35.6569C26.5384 36.0474 26.5384 36.6805 26.9289 37.0711C27.3195 37.4616 27.9526 37.4616 28.3431 37.0711L34 31.4142L39.6569 37.0711C40.0474 37.4616 40.6805 37.4616 41.0711 37.0711C41.4616 36.6805 41.4616 36.0474 41.0711 35.6569L34.7071 29.2929ZM35 48V39H33V48H35ZM35 39V30H33V39H35Z" fill="white"/>
</svg>
