<svg width="64" height="54" viewBox="0 0 64 54" fill="none" xmlns="http://www.w3.org/2000/svg">
<path d="M3 3V49C3 50.1046 3.89543 51 5 51H61" stroke="black" stroke-width="5" stroke-linecap="round"/>
<path d="M62.784 16.7514C63.7512 15.7662 63.7367 14.1833 62.7514 13.216C61.7662 12.2488 60.1833 12.2633 59.216 13.2486L62.784 16.7514ZM35.3061 37.1404L36.9497 35.2566L35.3061 37.1404ZM21.6129 27.5906L22.687 29.848L21.6129 27.5906ZM24.8741 28.039L23.2306 29.9228L24.8741 28.039ZM4.07414 38.7043L22.687 29.848L20.5387 25.3331L1.92586 34.1893L4.07414 38.7043ZM23.2306 29.9228L33.6626 39.0243L36.9497 35.2566L26.5177 26.1551L23.2306 29.9228ZM41.2031 38.733L62.784 16.7514L59.216 13.2486L37.6352 35.2302L41.2031 38.733ZM33.6626 39.0243C35.8568 40.9387 39.163 40.811 41.2031 38.733L37.6352 35.2302C37.4497 35.4191 37.1491 35.4307 36.9497 35.2566L33.6626 39.0243ZM22.687 29.848C22.8669 29.7624 23.0804 29.7918 23.2306 29.9228L26.5177 26.1551C24.8664 24.7145 22.5175 24.3915 20.5387 25.3331L22.687 29.848Z" fill="black"/>
</svg>
